<svg xmlns="http://www.w3.org/2000/svg" xmlns:xlink="http://www.w3.org/1999/xlink" width="500" zoomAndPan="magnify" viewBox="0 0 375 374.999991" height="500" preserveAspectRatio="xMidYMid meet" version="1.0"><defs><g/><clipPath id="523def670c"><path d="M 89.925781 107 L 283 107 L 283 244.722656 L 89.925781 244.722656 Z M 89.925781 107 " clip-rule="nonzero"/></clipPath><clipPath id="33ee856b18"><path d="M 99 71.472656 L 284.925781 71.472656 L 284.925781 225 L 99 225 Z M 99 71.472656 " clip-rule="nonzero"/></clipPath></defs><g clip-path="url(#523def670c)"><path fill="#fffbfb" d="M 189.296875 169.941406 C 188.320312 169.878906 184.167969 169.699219 183.375 169.210938 C 184.292969 167.4375 187.402344 164.082031 190.515625 165.484375 C 190.578125 166.644531 189.664062 168.902344 189.296875 169.941406 Z M 187.402344 109.023438 C 187.527344 108.046875 187.832031 107.742188 188.074219 107.011719 C 184.71875 107.195312 178.492188 110.429688 176.355469 111.832031 C 174.648438 112.929688 172.9375 114.214844 171.59375 115.433594 C 169.335938 117.449219 169.09375 118.304688 167.199219 119.035156 C 163.84375 120.316406 160.792969 124.222656 159.328125 127.582031 C 157.25 132.339844 156.703125 137.101562 156.703125 142.597656 C 156.703125 151.875 160.546875 164.144531 170.375 156.941406 C 175.5 153.21875 180.507812 145.769531 183.558594 138.445312 C 183.496094 144.183594 179.042969 153.582031 176.417969 156.574219 C 173.488281 159.871094 168.421875 163.777344 163.292969 162.128906 C 161.890625 161.703125 161.28125 161.152344 160.363281 160.238281 L 159.386719 159.503906 C 159.386719 167.378906 157.984375 172.628906 155.175781 178.609375 C 153.832031 181.355469 152.488281 183.613281 150.84375 186.054688 C 144.492188 195.699219 136.070312 203.757812 130.882812 212.179688 C 123.617188 223.839844 133.566406 217.671875 116.292969 223.289062 C 108.113281 225.914062 93.710938 232.324219 89.925781 238.730469 C 90.71875 238.304688 91.574219 237.632812 92.488281 237.085938 C 95.417969 235.3125 97.738281 234.335938 101.035156 233.175781 C 110.617188 229.820312 118.917969 229.148438 128.808594 227.746094 C 134.054688 227.011719 139.183594 227.132812 144.492188 226.769531 C 144.492188 214.621094 147.058594 209.128906 152.734375 199.605469 C 154.808594 196.1875 156.945312 193.195312 159.019531 189.777344 C 161.097656 186.300781 162.621094 183.308594 164.390625 179.28125 L 165.246094 184.285156 C 166.039062 180.011719 166.101562 178 167.566406 174.152344 C 168.847656 170.613281 175.441406 158.894531 178.738281 160.90625 C 179.589844 161.394531 180.507812 163.714844 180.871094 165.121094 C 181.484375 167.316406 181.300781 168.355469 181.484375 170.613281 C 188.257812 170.675781 193.628906 171.894531 194.605469 178 C 205.289062 179.402344 200.832031 181.660156 200.101562 183.554688 C 200.894531 183.613281 200.832031 183.492188 201.503906 183.859375 C 201.929688 190.511719 197.476562 193.015625 193.507812 195.515625 C 188.441406 198.691406 185.328125 200.339844 185.207031 206.746094 C 184.597656 206.625 180.628906 202.902344 177.882812 202.78125 C 178.738281 203.328125 181.484375 206.015625 182.335938 206.871094 C 191.066406 216.085938 197.597656 226.464844 201.992188 238.550781 C 202.417969 239.648438 203.703125 244.226562 204.128906 244.898438 C 205.105469 243.125 204.859375 238.792969 204.738281 236.472656 C 207.914062 236.777344 211.941406 237.816406 215.480469 238.304688 C 232.695312 240.683594 252.105469 240.074219 268.035156 233.117188 C 272.371094 231.285156 280 227.132812 282.808594 223.898438 C 280.671875 224.511719 277.984375 225.851562 275.542969 226.644531 C 260.832031 231.46875 244.230469 231.894531 228.910156 229.636719 C 222.988281 228.78125 220.425781 227.929688 215.785156 227.132812 C 216.03125 226.15625 216.582031 225.242188 216.886719 224.265625 C 217.253906 223.351562 217.433594 222.25 217.679688 221.09375 C 218.535156 221.945312 218.535156 222.558594 220.183594 222.863281 C 219.570312 219.566406 217.070312 208.394531 219.082031 205.160156 C 220.671875 207.601562 221.097656 209.554688 221.890625 212.851562 C 222.5625 208.882812 221.21875 203.574219 219.9375 199.910156 C 219.511719 198.691406 218.839844 197.410156 218.535156 196.308594 C 219.570312 197.042969 219.9375 198.203125 220.730469 198.8125 C 220.609375 194.84375 218.59375 191.183594 217.070312 188.558594 C 209.925781 176.535156 207.242188 172.992188 207.972656 156.148438 C 206.386719 156.636719 199.855469 163.105469 199.367188 163.960938 C 199.917969 161.640625 204.128906 157.183594 205.59375 155.964844 C 208.339844 153.644531 210.660156 152.117188 214.015625 150.285156 C 221.585938 145.953125 228.605469 144.550781 228.910156 136.738281 C 232.632812 134.234375 233 127.640625 231.65625 124.34375 C 230.800781 122.148438 230.070312 122.269531 229.277344 121.234375 C 231.839844 120.011719 231.839844 117.507812 229.277344 116.226562 C 222.988281 113.113281 211.269531 120.746094 206.570312 118.425781 C 207.121094 117.265625 207.914062 117.265625 209.5 116.898438 C 208.21875 115.371094 206.019531 113.417969 204.007812 112.136719 C 199.976562 109.574219 198.511719 110.0625 196.742188 109.207031 C 197.660156 108.476562 197.414062 108.78125 198.511719 108.351562 C 198.511719 108.351562 198.878906 108.351562 199.125 108.046875 L 195.09375 107.621094 C 191.738281 107.4375 188.503906 109.023438 187.402344 109.023438 Z M 187.402344 109.023438 " fill-opacity="1" fill-rule="evenodd"/></g><path fill="#fffbfb" d="M 100.179688 242.882812 C 103.292969 242.027344 106.160156 240.808594 109.703125 239.890625 C 120.933594 237.144531 132.53125 236.414062 143.882812 238.488281 C 157.554688 241.050781 175.441406 243.25 190.089844 241.355469 C 189.113281 240.929688 179.957031 240.136719 177.941406 239.890625 C 166.347656 238.304688 153.953125 235.070312 143.640625 233.664062 C 134.363281 232.445312 127.402344 232.6875 118.796875 234.582031 C 113.914062 235.617188 108.175781 237.753906 103.964844 240.257812 C 102.378906 241.234375 101.402344 242.027344 100.179688 242.882812 Z M 100.179688 242.882812 " fill-opacity="1" fill-rule="evenodd"/><path fill="#003070" d="M 189.296875 169.941406 C 189.664062 168.902344 190.578125 166.644531 190.515625 165.484375 C 187.402344 164.082031 184.292969 167.4375 183.375 169.210938 C 184.167969 169.699219 188.320312 169.878906 189.296875 169.941406 Z M 189.296875 169.941406 " fill-opacity="1" fill-rule="evenodd"/><g clip-path="url(#33ee856b18)"><path fill="#fffbfb" d="M 102.011719 156.023438 C 100.179688 149.25 99.265625 142.109375 99.449219 135.027344 C 99.691406 121.84375 103.71875 108.839844 111.777344 98.222656 C 115.804688 92.910156 120.6875 88.394531 126.304688 84.855469 C 142.480469 74.597656 160.914062 75.332031 177.453125 84.183594 C 178.796875 84.914062 180.078125 85.648438 181.359375 86.441406 C 182.214844 86.929688 183.070312 87.476562 183.925781 88.027344 C 184.292969 88.273438 185.632812 89.066406 186.0625 89.066406 C 186.609375 89.003906 188.378906 87.113281 188.808594 86.746094 C 197.230469 78.445312 206.9375 72.644531 219.023438 72.035156 C 230.253906 71.484375 240.933594 74.660156 250.457031 80.457031 C 258.878906 85.585938 266.386719 92.789062 272.003906 100.90625 C 273.101562 102.492188 274.199219 104.140625 275.175781 105.851562 C 276.152344 107.558594 277.070312 109.269531 277.984375 111.039062 C 278.414062 111.894531 278.777344 112.6875 279.207031 113.542969 C 283.355469 122.757812 285.066406 132.953125 284.820312 143.023438 C 284.636719 150.652344 283.355469 158.34375 281.039062 165.667969 C 279.265625 171.222656 277.191406 176.535156 274.445312 181.722656 C 272.429688 185.566406 270.171875 189.289062 267.851562 192.953125 C 260.039062 205.464844 249.417969 218.46875 236.050781 225 C 254.851562 206.871094 277.679688 163.777344 275.664062 137.40625 C 275.054688 129.105469 272.796875 120.925781 269.195312 113.480469 C 266.144531 107.316406 262.117188 101.335938 257.230469 96.449219 C 250.578125 89.917969 241.851562 85.21875 232.753906 83.082031 C 218.960938 79.847656 204.859375 82.535156 194.179688 92.238281 C 192.714844 93.519531 191.554688 94.984375 190.332031 96.449219 C 189.480469 97.550781 188.378906 98.890625 186.914062 99.199219 C 186.0625 99.320312 185.269531 99.074219 184.472656 98.648438 C 184.046875 98.402344 183.621094 98.039062 183.191406 97.734375 C 182.582031 97.183594 181.972656 96.695312 181.359375 96.144531 C 179.589844 94.804688 177.761719 93.460938 175.867188 92.363281 C 160.667969 83.449219 145.226562 82.960938 129.660156 91.140625 C 106.773438 103.226562 101.890625 129.777344 106.039062 153.339844 C 107.078125 159.320312 109.945312 172.078125 111.53125 178.058594 C 107.320312 170.980469 104.148438 164.019531 102.011719 156.023438 Z M 102.011719 156.023438 " fill-opacity="1" fill-rule="evenodd"/></g><g fill="#fffbfb" fill-opacity="1"><g transform="translate(73.403384, 279.211936)"><g><path d="M 0.488281 0 L 7.683594 0 C 7.125 -0.488281 6.832031 -1.804688 6.832031 -3.023438 L 6.832031 -12.175781 L 9.417969 -6.246094 C 9.710938 -6.074219 10.199219 -5.929688 10.660156 -5.929688 C 15.636719 -5.929688 19.054688 -10.101562 19.054688 -14.90625 C 19.054688 -19.933594 15.417969 -23.542969 9.199219 -23.542969 L 0.488281 -23.542969 C 1.050781 -23.054688 1.34375 -21.714844 1.34375 -20.492188 L 1.34375 -3.050781 C 1.34375 -1.828125 1.050781 -0.488281 0.488281 0 Z M 9.613281 -18.90625 C 12.296875 -18.90625 13.566406 -16.957031 13.566406 -14.90625 C 13.566406 -12.613281 12.492188 -10.589844 10.125 -10.589844 C 8.390625 -10.589844 7.539062 -11.515625 6.832031 -13.101562 L 6.832031 -18.90625 Z M 9.613281 -18.90625 "/></g></g></g><g fill="#fffbfb" fill-opacity="1"><g transform="translate(92.943375, 279.211936)"><g><path d="M 12.515625 0.367188 C 15.980469 0.367188 19.054688 -0.609375 20.933594 -2.683594 C 20.101562 -4.683594 19.347656 -7.269531 19.347656 -7.269531 C 19.347656 -7.269531 17.640625 -4.316406 13.417969 -4.316406 C 11.246094 -4.316406 9.222656 -5.148438 7.90625 -6.804688 C 6.878906 -9.199219 9.246094 -10.296875 12.199219 -10.296875 C 14.101562 -10.296875 16.027344 -9.464844 17.003906 -8.636719 L 17.003906 -14.027344 C 16.613281 -14.761719 14.90625 -15.394531 13.417969 -15.394531 C 9.539062 -15.394531 6.832031 -12.199219 7.097656 -8.101562 C 6.613281 -9.101562 6.34375 -10.320312 6.34375 -11.757812 C 6.34375 -16.785156 9.660156 -19.25 13.417969 -19.25 C 17.640625 -19.25 19.347656 -16.296875 19.347656 -16.296875 C 19.347656 -16.296875 20.101562 -18.882812 20.933594 -20.882812 C 19.054688 -22.957031 15.980469 -23.910156 12.515625 -23.910156 C 5.417969 -23.910156 0.855469 -18.46875 0.855469 -11.785156 C 0.855469 -5.097656 5.417969 0.367188 12.515625 0.367188 Z M 12.515625 0.367188 "/></g></g></g><g fill="#fffbfb" fill-opacity="1"><g transform="translate(113.873858, 279.211936)"><g><path d="M 0.488281 -23.542969 L 0.488281 -17.542969 C 1.683594 -18.664062 3.539062 -18.90625 4.734375 -18.90625 L 6.488281 -18.90625 L 6.488281 -3.050781 C 6.488281 -1.828125 6.195312 -0.488281 5.636719 0 L 12.832031 0 C 12.269531 -0.488281 11.980469 -1.804688 11.980469 -3.023438 L 11.980469 -18.90625 L 13.808594 -18.90625 C 15.003906 -18.90625 16.859375 -18.664062 18.054688 -17.542969 L 18.054688 -23.542969 Z M 0.488281 -23.542969 "/></g></g></g><g fill="#fffbfb" fill-opacity="1"><g transform="translate(132.413681, 279.211936)"><g><path d="M 2.5625 0 L 9.320312 0 C 7.78125 -2.023438 6.855469 -4.246094 6.488281 -7.027344 L 13.027344 -7.027344 L 13.027344 -3.023438 C 13.027344 -1.804688 12.734375 -0.488281 12.175781 0 L 19.371094 0 C 18.808594 -0.488281 18.515625 -1.828125 18.515625 -3.050781 L 18.515625 -21.761719 C 17.808594 -23.078125 15.394531 -23.910156 13.125 -23.910156 C 5.195312 -23.910156 0.855469 -16.6875 0.855469 -9.976562 C 0.855469 -6 1.390625 -3.464844 2.5625 0 Z M 6.515625 -11.660156 C 7 -14.882812 8.78125 -18.882812 13.050781 -18.882812 L 13.027344 -11.660156 Z M 6.515625 -11.660156 "/></g></g></g><g fill="#fffbfb" fill-opacity="1"><g transform="translate(152.026867, 279.211936)"><g><path d="M 1.34375 -20.515625 L 1.34375 -3.023438 C 1.34375 -1.804688 1.050781 -0.488281 0.488281 0 L 11.148438 0 C 17.152344 0 19.980469 -3.316406 19.980469 -6.878906 C 19.980469 -11.003906 17.175781 -12.613281 15.050781 -12.589844 C 17.199219 -13.296875 18.640625 -15.273438 18.640625 -17.6875 C 18.640625 -21.371094 15.320312 -23.542969 11.980469 -23.542969 L 0.488281 -23.542969 C 1.050781 -23.054688 1.34375 -21.738281 1.34375 -20.515625 Z M 11.027344 -10.199219 C 13.417969 -10.199219 14.492188 -9.003906 14.492188 -7.390625 C 14.492188 -5.78125 13.417969 -4.585938 11.027344 -4.585938 L 6.832031 -4.585938 L 6.832031 -10.199219 Z M 6.832031 -18.957031 L 10.734375 -18.957031 C 12.078125 -18.957031 13.078125 -17.957031 13.078125 -16.761719 C 13.078125 -15.566406 12.078125 -14.566406 10.734375 -14.566406 L 6.832031 -14.566406 Z M 6.832031 -18.957031 "/></g></g></g><g fill="#fffbfb" fill-opacity="1"><g transform="translate(172.493847, 279.211936)"><g><path d="M 1.34375 -20.492188 L 1.34375 -3.050781 C 1.34375 -1.828125 1.050781 -0.488281 0.488281 0 L 7.683594 0 C 7.125 -0.488281 6.832031 -1.804688 6.832031 -3.023438 L 6.832031 -13.148438 L 10.734375 -2.316406 C 11.199219 -1.195312 11.101562 -0.414062 10.734375 0 L 18.785156 0 C 17.882812 -0.464844 16.6875 -2.171875 15.320312 -5.78125 L 13.929688 -9.464844 C 16.808594 -10.34375 18.859375 -12.636719 18.859375 -16.027344 C 18.859375 -20.957031 14.539062 -23.542969 10.6875 -23.542969 L 0.488281 -23.542969 C 1.050781 -23.054688 1.34375 -21.714844 1.34375 -20.492188 Z M 6.832031 -13.148438 L 6.832031 -18.90625 L 10.367188 -18.90625 C 12.367188 -18.90625 13.417969 -17.542969 13.417969 -16.027344 C 13.417969 -14.6875 12.417969 -13.148438 10.320312 -13.148438 Z M 6.832031 -13.148438 "/></g></g></g><g fill="#fffbfb" fill-opacity="1"><g transform="translate(191.838684, 279.211936)"><g><path d="M 2.5625 0 L 9.320312 0 C 7.78125 -2.023438 6.855469 -4.246094 6.488281 -7.027344 L 13.027344 -7.027344 L 13.027344 -3.023438 C 13.027344 -1.804688 12.734375 -0.488281 12.175781 0 L 19.371094 0 C 18.808594 -0.488281 18.515625 -1.828125 18.515625 -3.050781 L 18.515625 -21.761719 C 17.808594 -23.078125 15.394531 -23.910156 13.125 -23.910156 C 5.195312 -23.910156 0.855469 -16.6875 0.855469 -9.976562 C 0.855469 -6 1.390625 -3.464844 2.5625 0 Z M 6.515625 -11.660156 C 7 -14.882812 8.78125 -18.882812 13.050781 -18.882812 L 13.027344 -11.660156 Z M 6.515625 -11.660156 "/></g></g></g><g fill="#fffbfb" fill-opacity="1"><g transform="translate(211.45187, 279.211936)"><g/></g></g><g fill="#fffbfb" fill-opacity="1"><g transform="translate(218.770225, 279.211936)"><g><path d="M 0.488281 -4 C 1.121094 -1.902344 5.050781 0.367188 9.148438 0.367188 C 14.613281 0.367188 18.785156 -2.414062 18.785156 -7.195312 C 18.785156 -15.46875 7.195312 -12.855469 7.195312 -16.734375 C 7.195312 -18.320312 9.125 -18.957031 10.6875 -18.957031 C 12.882812 -18.957031 14.832031 -17.832031 16.222656 -16.566406 C 17.054688 -18.199219 18.125 -19.589844 18.957031 -20.859375 C 17.492188 -22.101562 15.222656 -23.910156 10.5625 -23.910156 C 5.757812 -23.910156 0.953125 -21.199219 0.953125 -16.589844 C 0.953125 -8.222656 12.785156 -10.320312 12.785156 -6.734375 C 12.785156 -5.074219 11.101562 -4.414062 9.296875 -4.414062 C 6.804688 -4.414062 4.539062 -6.097656 3.269531 -8.125 C 2.5625 -6.683594 1.535156 -5.269531 0.488281 -4 Z M 0.488281 -4 "/></g></g></g><g fill="#fffbfb" fill-opacity="1"><g transform="translate(238.212639, 279.211936)"><g><path d="M 7.683594 0 C 7.125 -0.488281 6.832031 -1.828125 6.832031 -3.050781 L 6.832031 -9.78125 L 13.222656 -9.78125 L 13.222656 -3.023438 C 13.222656 -1.804688 12.929688 -0.488281 12.367188 0 L 19.566406 0 C 19.003906 -0.488281 18.710938 -1.828125 18.710938 -3.050781 L 18.710938 -20.492188 C 18.710938 -21.714844 19.003906 -23.054688 19.566406 -23.542969 L 12.367188 -23.542969 C 12.929688 -23.054688 13.222656 -21.738281 13.222656 -20.515625 L 13.222656 -14.175781 L 6.832031 -14.175781 L 6.832031 -20.492188 C 6.832031 -21.714844 7.125 -23.054688 7.683594 -23.542969 L 0.488281 -23.542969 C 1.050781 -23.054688 1.34375 -21.738281 1.34375 -20.515625 L 1.34375 -3.023438 C 1.34375 -1.804688 1.050781 -0.488281 0.488281 0 Z M 7.683594 0 "/></g></g></g><g fill="#fffbfb" fill-opacity="1"><g transform="translate(258.264913, 279.211936)"><g><path d="M 0.855469 -11.757812 C 0.855469 -5.074219 4.171875 0.367188 11.882812 0.367188 C 19.589844 0.367188 22.910156 -5.074219 22.910156 -11.757812 C 22.910156 -18.46875 19.589844 -23.910156 11.882812 -23.910156 C 4.171875 -23.910156 0.855469 -18.46875 0.855469 -11.757812 Z M 6.34375 -11.785156 C 6.34375 -15.882812 8.003906 -19.199219 11.855469 -19.199219 C 15.761719 -19.199219 17.417969 -15.882812 17.417969 -11.785156 C 17.417969 -7.710938 15.761719 -4.367188 11.855469 -4.367188 C 8.003906 -4.367188 6.34375 -7.710938 6.34375 -11.785156 Z M 6.34375 -11.785156 "/></g></g></g><g fill="#fffbfb" fill-opacity="1"><g transform="translate(282.025162, 279.211936)"><g><path d="M 0.488281 0 L 7.683594 0 C 7.125 -0.488281 6.832031 -1.804688 6.832031 -3.023438 L 6.832031 -12.175781 L 9.417969 -6.246094 C 9.710938 -6.074219 10.199219 -5.929688 10.660156 -5.929688 C 15.636719 -5.929688 19.054688 -10.101562 19.054688 -14.90625 C 19.054688 -19.933594 15.417969 -23.542969 9.199219 -23.542969 L 0.488281 -23.542969 C 1.050781 -23.054688 1.34375 -21.714844 1.34375 -20.492188 L 1.34375 -3.050781 C 1.34375 -1.828125 1.050781 -0.488281 0.488281 0 Z M 9.613281 -18.90625 C 12.296875 -18.90625 13.566406 -16.957031 13.566406 -14.90625 C 13.566406 -12.613281 12.492188 -10.589844 10.125 -10.589844 C 8.390625 -10.589844 7.539062 -11.515625 6.832031 -13.101562 L 6.832031 -18.90625 Z M 9.613281 -18.90625 "/></g></g></g></svg>