<svg xmlns="http://www.w3.org/2000/svg" xmlns:xlink="http://www.w3.org/1999/xlink" width="500" zoomAndPan="magnify" viewBox="0 0 375 374.999991" height="500" preserveAspectRatio="xMidYMid meet" version="1.0"><defs><g/><clipPath id="d6c006fd70"><path d="M 39.761719 70 L 332 70 L 332 279.144531 L 39.761719 279.144531 Z M 39.761719 70 " clip-rule="nonzero"/></clipPath></defs><g clip-path="url(#d6c006fd70)"><path fill="#004aad" d="M 190.222656 165.730469 C 188.742188 165.636719 182.457031 165.359375 181.257812 164.621094 C 182.644531 161.941406 187.355469 156.859375 192.070312 158.984375 C 192.164062 160.742188 190.777344 164.160156 190.222656 165.730469 Z M 187.355469 73.496094 C 187.542969 72.019531 188.003906 71.554688 188.375 70.445312 C 183.289062 70.722656 173.863281 75.621094 170.628906 77.746094 C 168.039062 79.410156 165.453125 81.351562 163.421875 83.199219 C 160 86.25 159.628906 87.542969 156.765625 88.652344 C 151.683594 90.59375 147.0625 96.507812 144.84375 101.59375 C 141.703125 108.800781 140.871094 116.007812 140.871094 124.328125 C 140.871094 138.375 146.691406 156.949219 161.570312 146.046875 C 169.335938 140.40625 176.914062 129.132812 181.535156 118.042969 C 181.441406 126.730469 174.695312 140.960938 170.722656 145.492188 C 166.285156 150.480469 158.613281 156.398438 150.851562 153.902344 C 148.726562 153.253906 147.800781 152.421875 146.414062 151.035156 L 144.9375 149.925781 C 144.9375 161.847656 142.808594 169.796875 138.558594 178.855469 C 136.527344 183.011719 134.492188 186.433594 131.996094 190.128906 C 122.386719 204.730469 109.632812 216.929688 101.777344 229.683594 C 90.777344 247.335938 105.84375 238.003906 79.6875 246.503906 C 67.304688 250.480469 45.492188 260.183594 39.761719 269.886719 C 40.964844 269.242188 42.257812 268.222656 43.644531 267.390625 C 48.082031 264.710938 51.59375 263.234375 56.582031 261.476562 C 71.09375 256.394531 83.660156 255.378906 98.632812 253.253906 C 106.582031 252.144531 114.34375 252.328125 122.386719 251.773438 C 122.386719 233.382812 126.265625 225.0625 134.863281 210.648438 C 138.003906 205.472656 141.238281 200.941406 144.382812 195.765625 C 147.523438 190.5 149.835938 185.972656 152.515625 179.871094 L 153.808594 187.449219 C 155.011719 180.980469 155.101562 177.929688 157.320312 172.109375 C 159.261719 166.746094 169.242188 149.003906 174.234375 152.054688 C 175.527344 152.792969 176.914062 156.304688 177.46875 158.429688 C 178.390625 161.757812 178.113281 163.328125 178.390625 166.746094 C 188.652344 166.839844 196.785156 168.6875 198.261719 177.929688 C 214.4375 180.054688 207.6875 183.476562 206.578125 186.339844 C 207.78125 186.433594 207.6875 186.246094 208.707031 186.800781 C 209.351562 196.875 202.605469 200.664062 196.597656 204.453125 C 188.929688 209.261719 184.214844 211.753906 184.03125 221.460938 C 183.105469 221.273438 177.097656 215.636719 172.9375 215.453125 C 174.234375 216.285156 178.390625 220.351562 179.6875 221.644531 C 192.902344 235.601562 202.789062 251.3125 209.445312 269.609375 C 210.09375 271.273438 212.03125 278.207031 212.679688 279.222656 C 214.160156 276.542969 213.789062 269.980469 213.605469 266.46875 C 218.410156 266.929688 224.507812 268.5 229.871094 269.242188 C 255.933594 272.84375 285.320312 271.921875 309.441406 261.386719 C 316.003906 258.613281 327.558594 252.328125 331.808594 247.429688 C 328.574219 248.355469 324.507812 250.386719 320.808594 251.589844 C 298.539062 258.890625 273.398438 259.535156 250.203125 256.117188 C 241.238281 254.824219 237.355469 253.53125 230.332031 252.328125 C 230.703125 250.847656 231.53125 249.464844 231.996094 247.984375 C 232.550781 246.597656 232.828125 244.933594 233.195312 243.179688 C 234.492188 244.472656 234.492188 245.394531 236.984375 245.859375 C 236.0625 240.867188 232.273438 223.957031 235.324219 219.058594 C 237.726562 222.753906 238.371094 225.710938 239.574219 230.703125 C 240.589844 224.695312 238.558594 216.652344 236.617188 211.109375 C 235.96875 209.261719 234.953125 207.320312 234.492188 205.65625 C 236.0625 206.765625 236.617188 208.519531 237.816406 209.445312 C 237.632812 203.4375 234.582031 197.894531 232.273438 193.917969 C 221.460938 175.710938 217.394531 170.351562 218.503906 144.84375 C 216.097656 145.582031 206.210938 155.378906 205.472656 156.675781 C 206.300781 153.160156 212.679688 146.414062 214.898438 144.566406 C 219.054688 141.054688 222.570312 138.746094 227.652344 135.972656 C 239.113281 129.410156 249.738281 127.285156 250.203125 115.453125 C 255.839844 111.664062 256.394531 101.683594 254.359375 96.695312 C 253.066406 93.367188 251.957031 93.550781 250.757812 91.980469 C 254.636719 90.132812 254.636719 86.34375 250.757812 84.402344 C 241.238281 79.6875 223.492188 91.242188 216.375 87.730469 C 217.207031 85.972656 218.410156 85.972656 220.8125 85.417969 C 218.871094 83.109375 215.542969 80.152344 212.496094 78.210938 C 206.394531 74.328125 204.175781 75.066406 201.496094 73.773438 C 202.882812 72.664062 202.511719 73.125 204.175781 72.480469 C 204.175781 72.480469 204.730469 72.480469 205.101562 72.019531 L 199 71.371094 C 193.917969 71.09375 189.019531 73.496094 187.355469 73.496094 Z M 187.355469 73.496094 " fill-opacity="1" fill-rule="evenodd"/></g><path fill="#004aad" d="M 55.289062 276.171875 C 60.003906 274.878906 64.347656 273.03125 69.707031 271.644531 C 86.710938 267.484375 104.273438 266.375 121.460938 269.519531 C 142.164062 273.398438 169.242188 276.726562 191.421875 273.863281 C 189.945312 273.214844 176.082031 272.011719 173.03125 271.644531 C 155.472656 269.242188 136.710938 264.34375 121.09375 262.214844 C 107.042969 260.367188 96.507812 260.738281 83.476562 263.601562 C 76.082031 265.175781 67.394531 268.410156 61.019531 272.199219 C 58.617188 273.675781 57.136719 274.878906 55.289062 276.171875 Z M 55.289062 276.171875 " fill-opacity="1" fill-rule="evenodd"/><path fill="#fffbfb" d="M 190.222656 165.730469 C 190.777344 164.160156 192.164062 160.742188 192.070312 158.984375 C 187.355469 156.859375 182.644531 161.941406 181.257812 164.621094 C 182.457031 165.359375 188.742188 165.636719 190.222656 165.730469 Z M 190.222656 165.730469 " fill-opacity="1" fill-rule="evenodd"/><path fill="#004aad" d="M 58.0625 144.660156 C 55.289062 134.402344 53.902344 123.585938 54.179688 112.867188 C 54.550781 92.90625 60.648438 73.21875 72.847656 57.136719 C 78.949219 49.097656 86.34375 42.257812 94.84375 36.898438 C 119.335938 21.371094 147.246094 22.480469 172.292969 35.882812 C 174.324219 36.992188 176.265625 38.101562 178.207031 39.300781 C 179.5 40.039062 180.792969 40.871094 182.089844 41.703125 C 182.644531 42.074219 184.675781 43.273438 185.324219 43.273438 C 186.15625 43.183594 188.835938 40.316406 189.480469 39.761719 C 202.234375 27.195312 216.929688 18.414062 235.230469 17.488281 C 252.234375 16.660156 268.410156 21.464844 282.824219 30.242188 C 295.578125 38.007812 306.949219 48.914062 315.449219 61.203125 C 317.113281 63.609375 318.777344 66.101562 320.253906 68.691406 C 321.734375 71.277344 323.121094 73.867188 324.507812 76.546875 C 325.152344 77.839844 325.707031 79.042969 326.355469 80.335938 C 332.640625 94.289062 335.226562 109.726562 334.859375 124.972656 C 334.582031 136.527344 332.640625 148.171875 329.128906 159.261719 C 326.449219 167.671875 323.304688 175.710938 319.148438 183.566406 C 316.097656 189.390625 312.675781 195.027344 309.164062 200.574219 C 297.335938 219.519531 281.253906 239.203125 261.015625 249.09375 C 289.480469 221.644531 324.046875 156.398438 320.996094 116.472656 C 320.070312 103.902344 316.652344 91.519531 311.199219 80.242188 C 306.578125 70.910156 300.476562 61.851562 293.085938 54.457031 C 283.011719 44.570312 269.792969 37.453125 256.023438 34.21875 C 235.136719 29.320312 213.789062 33.386719 197.613281 48.082031 C 195.398438 50.023438 193.640625 52.238281 191.792969 54.457031 C 190.5 56.121094 188.835938 58.15625 186.617188 58.617188 C 185.324219 58.800781 184.121094 58.433594 182.921875 57.785156 C 182.273438 57.414062 181.625 56.859375 180.980469 56.398438 C 180.054688 55.566406 179.132812 54.828125 178.207031 53.996094 C 175.527344 51.960938 172.753906 49.929688 169.890625 48.265625 C 146.878906 34.773438 123.496094 34.035156 99.929688 46.417969 C 65.269531 64.714844 57.878906 104.917969 64.160156 140.59375 C 65.734375 149.648438 70.078125 168.964844 72.480469 178.023438 C 66.101562 167.300781 61.296875 156.765625 58.0625 144.660156 Z M 58.0625 144.660156 " fill-opacity="1" fill-rule="evenodd"/><g fill="#003070" fill-opacity="1"><g transform="translate(14.747104, 331.17972)"><g><path d="M 0.738281 0 L 11.636719 0 C 10.785156 -0.738281 10.34375 -2.734375 10.34375 -4.582031 L 10.34375 -18.433594 L 14.257812 -9.457031 C 14.703125 -9.199219 15.441406 -8.976562 16.140625 -8.976562 C 23.675781 -8.976562 28.847656 -15.292969 28.847656 -22.570312 C 28.847656 -30.179688 23.34375 -35.644531 13.925781 -35.644531 L 0.738281 -35.644531 C 1.589844 -34.90625 2.03125 -32.875 2.03125 -31.027344 L 2.03125 -4.617188 C 2.03125 -2.769531 1.589844 -0.738281 0.738281 0 Z M 14.554688 -28.628906 C 18.617188 -28.628906 20.539062 -25.671875 20.539062 -22.570312 C 20.539062 -19.097656 18.914062 -16.03125 15.328125 -16.03125 C 12.707031 -16.03125 11.414062 -17.433594 10.34375 -19.835938 L 10.34375 -28.628906 Z M 14.554688 -28.628906 "/></g></g></g><g fill="#003070" fill-opacity="1"><g transform="translate(44.332469, 331.17972)"><g><path d="M 18.949219 0.554688 C 24.195312 0.554688 28.847656 -0.921875 31.691406 -4.0625 C 30.4375 -7.09375 29.292969 -11.007812 29.292969 -11.007812 C 29.292969 -11.007812 26.707031 -6.539062 20.316406 -6.539062 C 17.027344 -6.539062 13.960938 -7.792969 11.96875 -10.304688 C 10.417969 -13.925781 14 -15.589844 18.46875 -15.589844 C 21.351562 -15.589844 24.269531 -14.332031 25.746094 -13.078125 L 25.746094 -21.238281 C 25.15625 -22.347656 22.570312 -23.308594 20.316406 -23.308594 C 14.441406 -23.308594 10.34375 -18.46875 10.75 -12.261719 C 10.011719 -13.777344 9.605469 -15.625 9.605469 -17.804688 C 9.605469 -25.414062 14.628906 -29.144531 20.316406 -29.144531 C 26.707031 -29.144531 29.292969 -24.675781 29.292969 -24.675781 C 29.292969 -24.675781 30.4375 -28.589844 31.691406 -31.621094 C 28.847656 -34.757812 24.195312 -36.199219 18.949219 -36.199219 C 8.199219 -36.199219 1.292969 -27.960938 1.292969 -17.839844 C 1.292969 -7.71875 8.199219 0.554688 18.949219 0.554688 Z M 18.949219 0.554688 "/></g></g></g><g fill="#003070" fill-opacity="1"><g transform="translate(76.023169, 331.17972)"><g><path d="M 0.738281 -35.644531 L 0.738281 -26.558594 C 2.546875 -28.257812 5.355469 -28.628906 7.167969 -28.628906 L 9.824219 -28.628906 L 9.824219 -4.617188 C 9.824219 -2.769531 9.382812 -0.738281 8.53125 0 L 19.429688 0 C 18.582031 -0.738281 18.136719 -2.734375 18.136719 -4.582031 L 18.136719 -28.628906 L 20.90625 -28.628906 C 22.71875 -28.628906 25.523438 -28.257812 27.335938 -26.558594 L 27.335938 -35.644531 Z M 0.738281 -35.644531 "/></g></g></g><g fill="#003070" fill-opacity="1"><g transform="translate(104.094187, 331.17972)"><g><path d="M 3.878906 0 L 14.109375 0 C 11.785156 -3.066406 10.378906 -6.425781 9.824219 -10.636719 L 19.726562 -10.636719 L 19.726562 -4.582031 C 19.726562 -2.734375 19.28125 -0.738281 18.433594 0 L 29.328125 0 C 28.480469 -0.738281 28.035156 -2.769531 28.035156 -4.617188 L 28.035156 -32.949219 C 26.964844 -34.945312 23.308594 -36.199219 19.871094 -36.199219 C 7.867188 -36.199219 1.292969 -25.265625 1.292969 -15.109375 C 1.292969 -9.085938 2.105469 -5.246094 3.878906 0 Z M 9.863281 -17.65625 C 10.601562 -22.53125 13.296875 -28.589844 19.761719 -28.589844 L 19.726562 -17.65625 Z M 9.863281 -17.65625 "/></g></g></g><g fill="#003070" fill-opacity="1"><g transform="translate(133.790377, 331.17972)"><g><path d="M 2.03125 -31.066406 L 2.03125 -4.582031 C 2.03125 -2.734375 1.589844 -0.738281 0.738281 0 L 16.882812 0 C 25.96875 0 30.253906 -5.023438 30.253906 -10.417969 C 30.253906 -16.660156 26.003906 -19.097656 22.792969 -19.058594 C 26.042969 -20.132812 28.222656 -23.125 28.222656 -26.78125 C 28.222656 -32.359375 23.199219 -35.644531 18.136719 -35.644531 L 0.738281 -35.644531 C 1.589844 -34.90625 2.03125 -32.914062 2.03125 -31.066406 Z M 16.695312 -15.441406 C 20.316406 -15.441406 21.941406 -13.628906 21.941406 -11.191406 C 21.941406 -8.753906 20.316406 -6.945312 16.695312 -6.945312 L 10.34375 -6.945312 L 10.34375 -15.441406 Z M 10.34375 -28.703125 L 16.253906 -28.703125 C 18.285156 -28.703125 19.800781 -27.1875 19.800781 -25.375 C 19.800781 -23.566406 18.285156 -22.050781 16.253906 -22.050781 L 10.34375 -22.050781 Z M 10.34375 -28.703125 "/></g></g></g><g fill="#003070" fill-opacity="1"><g transform="translate(164.779289, 331.17972)"><g><path d="M 2.03125 -31.027344 L 2.03125 -4.617188 C 2.03125 -2.769531 1.589844 -0.738281 0.738281 0 L 11.636719 0 C 10.785156 -0.738281 10.34375 -2.734375 10.34375 -4.582031 L 10.34375 -19.910156 L 16.253906 -3.507812 C 16.953125 -1.808594 16.808594 -0.628906 16.253906 0 L 28.441406 0 C 27.074219 -0.703125 25.265625 -3.289062 23.199219 -8.753906 L 21.09375 -14.332031 C 25.449219 -15.660156 28.554688 -19.132812 28.554688 -24.269531 C 28.554688 -31.730469 22.015625 -35.644531 16.179688 -35.644531 L 0.738281 -35.644531 C 1.589844 -34.90625 2.03125 -32.875 2.03125 -31.027344 Z M 10.34375 -19.910156 L 10.34375 -28.628906 L 15.699219 -28.628906 C 18.726562 -28.628906 20.316406 -26.558594 20.316406 -24.269531 C 20.316406 -22.238281 18.800781 -19.910156 15.625 -19.910156 Z M 10.34375 -19.910156 "/></g></g></g><g fill="#003070" fill-opacity="1"><g transform="translate(194.069173, 331.17972)"><g><path d="M 3.878906 0 L 14.109375 0 C 11.785156 -3.066406 10.378906 -6.425781 9.824219 -10.636719 L 19.726562 -10.636719 L 19.726562 -4.582031 C 19.726562 -2.734375 19.28125 -0.738281 18.433594 0 L 29.328125 0 C 28.480469 -0.738281 28.035156 -2.769531 28.035156 -4.617188 L 28.035156 -32.949219 C 26.964844 -34.945312 23.308594 -36.199219 19.871094 -36.199219 C 7.867188 -36.199219 1.292969 -25.265625 1.292969 -15.109375 C 1.292969 -9.085938 2.105469 -5.246094 3.878906 0 Z M 9.863281 -17.65625 C 10.601562 -22.53125 13.296875 -28.589844 19.761719 -28.589844 L 19.726562 -17.65625 Z M 9.863281 -17.65625 "/></g></g></g><g fill="#003070" fill-opacity="1"><g transform="translate(223.765363, 331.17972)"><g/></g></g><g fill="#003070" fill-opacity="1"><g transform="translate(234.846034, 331.17972)"><g><path d="M 0.738281 -6.058594 C 1.699219 -2.882812 7.644531 0.554688 13.851562 0.554688 C 22.125 0.554688 28.441406 -3.65625 28.441406 -10.898438 C 28.441406 -23.417969 10.898438 -19.464844 10.898438 -25.339844 C 10.898438 -27.742188 13.816406 -28.703125 16.179688 -28.703125 C 19.503906 -28.703125 22.457031 -27.003906 24.5625 -25.082031 C 25.820312 -27.554688 27.445312 -29.660156 28.703125 -31.582031 C 26.484375 -33.464844 23.050781 -36.199219 15.996094 -36.199219 C 8.71875 -36.199219 1.441406 -32.101562 1.441406 -25.117188 C 1.441406 -12.449219 19.355469 -15.625 19.355469 -10.195312 C 19.355469 -7.683594 16.808594 -6.6875 14.074219 -6.6875 C 10.304688 -6.6875 6.871094 -9.234375 4.949219 -12.300781 C 3.878906 -10.121094 2.328125 -7.980469 0.738281 -6.058594 Z M 0.738281 -6.058594 "/></g></g></g><g fill="#003070" fill-opacity="1"><g transform="translate(264.283659, 331.17972)"><g><path d="M 11.636719 0 C 10.785156 -0.738281 10.34375 -2.769531 10.34375 -4.617188 L 10.34375 -14.8125 L 20.019531 -14.8125 L 20.019531 -4.582031 C 20.019531 -2.734375 19.578125 -0.738281 18.726562 0 L 29.625 0 C 28.773438 -0.738281 28.332031 -2.769531 28.332031 -4.617188 L 28.332031 -31.027344 C 28.332031 -32.875 28.773438 -34.90625 29.625 -35.644531 L 18.726562 -35.644531 C 19.578125 -34.90625 20.019531 -32.914062 20.019531 -31.066406 L 20.019531 -21.460938 L 10.34375 -21.460938 L 10.34375 -31.027344 C 10.34375 -32.875 10.785156 -34.90625 11.636719 -35.644531 L 0.738281 -35.644531 C 1.589844 -34.90625 2.03125 -32.914062 2.03125 -31.066406 L 2.03125 -4.582031 C 2.03125 -2.734375 1.589844 -0.738281 0.738281 0 Z M 11.636719 0 "/></g></g></g><g fill="#003070" fill-opacity="1"><g transform="translate(294.644668, 331.17972)"><g><path d="M 1.292969 -17.804688 C 1.292969 -7.683594 6.316406 0.554688 17.988281 0.554688 C 29.660156 0.554688 34.683594 -7.683594 34.683594 -17.804688 C 34.683594 -27.960938 29.660156 -36.199219 17.988281 -36.199219 C 6.316406 -36.199219 1.292969 -27.960938 1.292969 -17.804688 Z M 9.605469 -17.839844 C 9.605469 -24.046875 12.117188 -29.070312 17.953125 -29.070312 C 23.863281 -29.070312 26.375 -24.046875 26.375 -17.839844 C 26.375 -11.671875 23.863281 -6.613281 17.953125 -6.613281 C 12.117188 -6.613281 9.605469 -11.671875 9.605469 -17.839844 Z M 9.605469 -17.839844 "/></g></g></g><g fill="#003070" fill-opacity="1"><g transform="translate(330.619897, 331.17972)"><g><path d="M 0.738281 0 L 11.636719 0 C 10.785156 -0.738281 10.34375 -2.734375 10.34375 -4.582031 L 10.34375 -18.433594 L 14.257812 -9.457031 C 14.703125 -9.199219 15.441406 -8.976562 16.140625 -8.976562 C 23.675781 -8.976562 28.847656 -15.292969 28.847656 -22.570312 C 28.847656 -30.179688 23.34375 -35.644531 13.925781 -35.644531 L 0.738281 -35.644531 C 1.589844 -34.90625 2.03125 -32.875 2.03125 -31.027344 L 2.03125 -4.617188 C 2.03125 -2.769531 1.589844 -0.738281 0.738281 0 Z M 14.554688 -28.628906 C 18.617188 -28.628906 20.539062 -25.671875 20.539062 -22.570312 C 20.539062 -19.097656 18.914062 -16.03125 15.328125 -16.03125 C 12.707031 -16.03125 11.414062 -17.433594 10.34375 -19.835938 L 10.34375 -28.628906 Z M 14.554688 -28.628906 "/></g></g></g></svg>